<svg width="35" height="42" viewBox="0 0 35 42" fill="none" xmlns="http://www.w3.org/2000/svg">
<path d="M0.392822 36.9029V0.166593C4.85871 -0.92185 8.26717 3.58373 9.49606 6.12089C9.54772 6.22753 9.57232 6.34318 9.57232 6.4617V32.5493H20.1426V42H5.48426C2.67234 42 0.392822 39.718 0.392822 36.9029Z" fill="#FA7435"/>
<path d="M10.5459 14.8986V6.28178H26.2562C28.1981 6.28178 30.0388 7.14868 31.2769 8.64632L33.1109 10.8648C34.0781 12.0348 34.6073 13.5059 34.6073 15.0245V33.551C34.6073 35.3913 33.831 37.146 32.4697 38.3826L30.3509 40.3073C29.1519 41.3966 27.5907 42 25.9715 42H21.3944V32.5493H24.4542V14.8986H10.5459Z" fill="#FA7435"/>
</svg>
